<?xml version="1.0" standalone="no"?>
<!DOCTYPE svg PUBLIC "-//W3C//DTD SVG 20010904//EN"
 "http://www.w3.org/TR/2001/REC-SVG-20010904/DTD/svg10.dtd">
<svg version="1.0" xmlns="http://www.w3.org/2000/svg"
 width="456.000000pt" height="184.000000pt" viewBox="0 0 456.000000 184.000000"
 preserveAspectRatio="xMidYMid meet">

<g transform="translate(0.000000,184.000000) scale(0.100000,-0.100000)"
fill="#000000" stroke="none">
<path d="M470 1812 c0 -12 -60 -164 -81 -204 -5 -9 -38 -90 -75 -180 -72 -178
-139 -339 -156 -378 -7 -14 -12 -27 -13 -30 0 -3 -11 -27 -24 -55 -12 -27 -32
-72 -43 -100 -11 -27 -23 -54 -27 -60 -5 -5 -13 -25 -19 -42 l-11 -33 68 0 68
0 48 123 c26 67 52 128 57 135 8 9 60 12 197 12 153 0 191 -3 209 -16 12 -8
22 -20 22 -27 0 -6 19 -60 42 -119 l43 -108 77 0 c43 0 78 4 78 9 0 5 -7 22
-15 38 -8 15 -29 62 -46 103 -17 41 -39 93 -49 115 -10 22 -30 69 -45 105 -15
36 -32 76 -38 90 -6 14 -11 27 -12 30 -1 3 -7 16 -13 30 -6 14 -34 81 -62 150
-28 69 -57 139 -65 155 -7 17 -32 77 -55 135 -46 116 -59 142 -60 122z m24
-374 c21 -47 36 -83 41 -98 1 -3 7 -18 13 -33 7 -16 12 -31 12 -34 0 -3 6 -19
14 -36 31 -68 46 -109 41 -117 -7 -11 -267 -12 -284 -1 -13 9 4 63 60 188 10
23 19 46 19 50 0 4 12 31 25 58 14 28 25 56 25 63 0 24 12 11 34 -40z"/>
<path d="M2917 1772 c-64 -3 -68 -5 -78 -30 -5 -15 -14 -36 -19 -47 -5 -11
-25 -63 -45 -115 -20 -52 -49 -129 -65 -170 -16 -41 -43 -113 -60 -160 -18
-47 -36 -94 -40 -105 -5 -11 -14 -37 -20 -57 -17 -56 -37 -47 -60 27 -7 22
-16 45 -20 50 -4 6 -11 21 -15 35 -4 14 -13 39 -20 55 -15 35 -68 169 -137
350 -27 71 -54 135 -59 141 -5 6 -6 14 -2 17 3 4 -33 7 -80 7 -50 0 -87 -4
-87 -10 0 -5 12 -35 26 -67 76 -174 134 -315 134 -329 0 -8 4 -14 8 -14 5 0
14 -19 21 -42 7 -24 18 -52 25 -63 7 -11 20 -42 30 -70 11 -27 22 -54 26 -60
4 -5 27 -59 51 -120 24 -60 46 -112 50 -115 3 -3 10 -16 14 -30 4 -14 18 -47
30 -75 12 -27 24 -56 27 -64 2 -8 23 31 47 85 24 55 51 117 61 139 10 22 48
112 85 200 37 88 73 174 80 190 7 17 36 86 65 155 28 69 57 139 65 155 39 87
54 133 42 137 -7 1 -43 2 -80 0z"/>
<path d="M3694 1771 c-2 -2 -4 -238 -4 -524 l0 -519 223 5 c223 5 260 10 347
49 72 33 199 144 200 176 0 6 4 12 8 12 11 0 49 89 62 142 20 88 7 293 -21
322 -5 6 -9 17 -9 26 0 22 -73 134 -108 167 -51 47 -131 94 -217 128 -21 9
-474 23 -481 16z m486 -163 c80 -37 141 -96 180 -173 30 -59 35 -79 38 -160 3
-70 0 -106 -13 -146 -44 -133 -126 -215 -250 -247 -33 -9 -196 -16 -282 -13
l-23 1 0 386 0 386 148 -4 c132 -4 152 -6 202 -30z"/>
<path d="M1147 1253 l3 -518 207 0 c274 0 335 16 464 118 109 87 160 196 167
358 9 233 -87 413 -272 504 -97 48 -148 55 -375 55 l-196 0 2 -517z m439 371
c109 -32 209 -127 239 -229 70 -238 -33 -459 -240 -513 -22 -6 -98 -12 -170
-14 l-130 -3 -3 388 -2 387 126 0 c85 0 144 -5 180 -16z"/>
<path d="M3240 1250 l0 -521 68 3 67 3 1 518 0 517 -68 0 -68 0 0 -520z"/>
<path d="M696 437 c-20 -7 -24 -12 -15 -17 10 -7 9 -27 -6 -105 -19 -95 -30
-113 -59 -102 -12 5 -12 15 1 72 8 37 13 68 10 71 -2 2 -17 0 -33 -6 -22 -9
-25 -13 -14 -20 11 -7 12 -17 1 -65 -12 -52 -14 -56 -39 -53 -30 3 -33 23 -18
104 7 41 7 41 -18 37 -28 -6 -32 -13 -16 -29 15 -15 -17 -101 -39 -107 -36 -9
-44 6 -32 62 16 74 15 79 -14 73 -27 -5 -31 -12 -15 -28 8 -8 8 -19 0 -38 -23
-63 4 -111 49 -86 11 5 22 6 25 2 3 -5 56 -10 118 -10 l113 -2 1 52 c1 29 9
83 19 120 9 38 15 72 13 76 -1 5 -16 5 -32 -1z"/>
<path d="M880 438 c-19 -7 -22 -11 -10 -18 23 -14 1 -66 -28 -62 -50 7 -102
-47 -102 -107 0 -39 17 -50 89 -56 58 -5 71 0 53 20 -5 6 1 58 13 118 12 59
19 110 16 111 -3 2 -17 -1 -31 -6z m-27 -136 c-2 -55 -12 -80 -35 -88 -15 -4
-26 -1 -35 12 -26 35 11 118 50 112 18 -2 22 -9 20 -36z"/>
<path d="M2190 443 c-44 -13 -45 -14 -31 -23 12 -7 12 -19 2 -72 -17 -87 -33
-138 -43 -138 -4 0 -8 -5 -8 -11 0 -8 35 -8 69 0 2 1 -1 7 -7 14 -7 8 -3 44
14 117 13 58 23 108 21 111 -1 3 -9 4 -17 2z"/>
<path d="M2273 442 c-23 -3 -30 -16 -14 -26 16 -10 -32 -206 -50 -206 -5 0 -9
-4 -9 -8 0 -10 59 -14 73 -5 5 3 3 9 -4 13 -10 7 -10 20 0 67 25 112 32 155
29 161 -2 4 -13 6 -25 4z"/>
<path d="M3930 443 c-8 -2 -22 -7 -30 -9 -12 -4 -12 -7 -1 -13 19 -12 -25
-211 -46 -211 -8 0 -11 -5 -8 -10 8 -13 62 -13 70 -1 3 5 1 12 -4 15 -11 7 -3
71 11 99 6 12 18 17 36 15 24 -3 27 -7 24 -38 -1 -19 -9 -47 -17 -64 -19 -37
-20 -36 13 -36 34 0 45 9 32 25 -7 8 -7 29 1 64 14 66 1 86 -49 76 -29 -5 -33
-4 -29 12 9 32 19 83 15 82 -2 0 -10 -3 -18 -6z"/>
<path d="M592 428 c-7 -7 -12 -18 -12 -25 0 -18 29 -16 37 3 8 21 -10 37 -25
22z"/>
<path d="M953 415 c-3 -9 -3 -18 -1 -21 9 -9 38 8 38 22 0 19 -29 18 -37 -1z"/>
<path d="M200 400 c0 -5 5 -10 11 -10 13 0 7 -43 -17 -127 -10 -34 -21 -53
-30 -53 -9 0 -12 -5 -8 -11 9 -15 103 -5 142 15 35 18 47 52 27 82 -12 19 -12
24 0 34 21 18 18 57 -4 70 -25 13 -121 13 -121 0z m107 -26 c7 -20 -30 -59
-50 -51 -9 3 -12 15 -9 36 3 25 9 31 28 31 14 0 27 -7 31 -16z m-7 -106 c0
-25 -35 -58 -61 -58 -20 0 -21 4 -15 42 4 23 12 45 18 49 17 11 58 -12 58 -33z"/>
<path d="M1495 390 c11 -34 -16 -160 -37 -173 -34 -22 -18 -28 59 -25 71 3 78
5 90 28 16 32 -3 41 -23 11 -19 -27 -74 -30 -74 -3 0 44 12 62 41 62 15 0 31
5 34 10 4 6 -7 10 -24 10 -33 0 -37 11 -25 58 8 30 63 32 71 2 8 -30 23 -24
23 10 l0 30 -71 0 c-66 0 -70 -1 -64 -20z"/>
<path d="M3072 380 c-14 -38 3 -51 20 -16 11 24 48 37 48 17 0 -36 -33 -158
-45 -167 -24 -18 -18 -24 25 -24 40 0 49 7 30 26 -9 9 4 87 26 162 6 21 44 14
44 -8 0 -40 29 -8 30 33 0 4 -38 7 -84 7 l-84 0 -10 -30z"/>
<path d="M3802 383 c-7 -13 -19 -23 -27 -23 -16 0 -21 -16 -6 -22 5 -2 4 -28
-2 -60 -8 -43 -7 -61 2 -72 12 -15 47 -11 58 7 4 6 0 8 -10 4 -25 -9 -29 8
-17 68 9 44 15 55 31 55 10 0 19 5 19 10 0 6 -6 10 -14 10 -8 0 -16 10 -18 23
l-3 22 -13 -22z"/>
<path d="M975 353 c-17 -3 -20 -12 -21 -65 -1 -44 -6 -65 -18 -73 -25 -18 -19
-25 19 -23 29 1 34 4 30 19 -3 10 -1 46 5 80 6 33 10 62 8 63 -2 1 -12 0 -23
-1z"/>
<path d="M1063 352 c-24 -3 -31 -18 -13 -24 15 -5 -5 -99 -24 -113 -20 -15
-10 -25 24 -25 32 0 43 9 31 24 -6 7 -6 30 1 59 8 38 15 48 35 53 13 4 28 3
33 -2 12 -13 -9 -104 -26 -111 -22 -8 -6 -23 26 -23 29 0 50 15 30 22 -7 2 -7
22 1 60 17 84 -1 96 -118 80z"/>
<path d="M1264 337 c-20 -16 -25 -26 -20 -48 3 -16 1 -31 -4 -34 -6 -3 -10
-17 -10 -31 0 -14 -7 -27 -15 -30 -22 -9 -18 -42 6 -55 47 -24 143 14 137 54
-3 19 -10 22 -56 25 -44 3 -53 6 -50 20 2 11 17 19 41 23 43 7 77 34 77 61 0
10 7 18 15 18 8 0 15 3 15 8 0 4 -25 8 -55 8 -42 1 -62 -3 -81 -19z m71 -7
c10 -16 -24 -62 -43 -58 -21 4 -28 34 -12 53 14 17 46 20 55 5z m-5 -149 c0
-17 -27 -31 -57 -31 -26 0 -33 4 -33 19 0 11 8 21 18 23 23 5 72 -3 72 -11z"/>
<path d="M1667 353 c-4 -3 -1 -11 6 -17 7 -6 18 -23 25 -38 10 -24 8 -29 -29
-62 -21 -20 -39 -39 -39 -42 0 -3 12 -4 27 -2 19 2 29 10 33 28 8 35 36 33 33
-2 -2 -25 1 -28 31 -28 42 0 49 7 25 31 -10 10 -22 31 -25 45 -6 23 -1 32 24
56 18 15 32 30 32 33 0 3 -14 5 -31 5 -25 0 -29 -3 -24 -19 10 -32 -16 -37
-37 -8 -19 26 -38 34 -51 20z"/>
<path d="M1890 353 c-68 -25 -93 -125 -37 -150 26 -12 87 7 87 27 0 6 -10 4
-24 -5 -34 -23 -56 -10 -56 34 0 44 24 81 52 81 17 0 19 -4 14 -25 -7 -27 3
-32 22 -13 35 35 -5 70 -58 51z"/>
<path d="M2012 335 c-32 -27 -48 -71 -37 -104 9 -30 56 -42 94 -24 30 15 42
33 21 33 -5 0 -10 -4 -10 -9 0 -13 -35 -20 -54 -9 -9 5 -16 20 -16 33 0 23 4
25 50 25 49 0 50 1 50 30 0 19 -7 33 -19 40 -30 15 -47 12 -79 -15z m68 -15
c0 -16 -7 -20 -30 -20 -32 0 -37 9 -18 28 19 19 48 15 48 -8z"/>
<path d="M2371 346 c-44 -25 -68 -105 -39 -134 18 -18 73 -14 99 8 28 23 18
26 -15 5 -27 -18 -53 -11 -62 17 -8 28 4 36 56 40 37 2 46 7 48 24 4 25 -22
54 -46 54 -9 -1 -28 -7 -41 -14z m59 -26 c0 -16 -7 -20 -37 -20 -35 0 -36 0
-18 20 10 11 26 20 37 20 11 0 18 -7 18 -20z"/>
<path d="M2520 352 c-11 -2 -16 -19 -17 -60 -2 -43 -7 -61 -22 -73 -25 -20
-17 -29 26 -29 31 0 44 12 24 24 -11 7 5 84 21 103 6 7 22 13 35 13 24 0 24
-2 18 -42 -8 -50 -21 -78 -36 -78 -6 0 -7 -4 -4 -10 8 -13 75 -13 75 -1 0 6
-4 12 -8 15 -5 3 -4 30 1 60 13 70 2 85 -56 83 -24 -1 -49 -3 -57 -5z"/>
<path d="M2730 347 c-61 -31 -77 -127 -24 -147 28 -11 84 11 84 32 0 9 -3 9
-12 0 -7 -7 -24 -12 -39 -12 -35 0 -44 33 -21 80 19 39 65 57 62 23 -4 -31 -1
-36 15 -23 22 18 18 47 -7 54 -30 8 -29 8 -58 -7z"/>
<path d="M2884 350 c-32 -13 -54 -50 -54 -90 0 -44 15 -60 55 -60 34 0 75 24
62 36 -4 5 -11 4 -15 -2 -21 -33 -72 -17 -72 21 0 23 4 25 49 25 53 0 69 16
51 50 -15 28 -40 35 -76 20z m46 -30 c0 -16 -7 -20 -30 -20 -32 0 -37 9 -18
28 19 19 48 15 48 -8z"/>
<path d="M3305 348 c-65 -35 -76 -127 -18 -149 29 -11 73 9 97 43 47 66 -11
144 -79 106z m59 -55 c-1 -80 -76 -118 -82 -42 -4 44 30 92 62 87 18 -3 21 -9
20 -45z"/>
<path d="M3464 338 c-20 -17 -25 -27 -20 -49 3 -16 1 -31 -4 -34 -6 -3 -10
-17 -10 -31 0 -13 -4 -24 -9 -24 -5 0 -13 -10 -17 -22 -14 -47 64 -64 124 -28
24 15 32 27 30 43 -3 19 -10 22 -56 25 -44 3 -53 6 -50 20 2 9 14 18 28 20 41
5 80 23 80 38 0 8 9 23 20 34 11 11 20 21 20 23 0 2 -25 3 -55 4 -41 1 -61 -4
-81 -19z m71 -8 c10 -16 -24 -62 -43 -58 -21 4 -28 34 -12 53 14 17 46 20 55
5z m-5 -149 c0 -25 -74 -44 -93 -24 -16 15 23 39 58 35 19 -2 35 -7 35 -11z"/>
<path d="M3655 351 c-51 -21 -81 -103 -50 -134 25 -26 69 -25 98 1 24 21 14
27 -16 8 -22 -15 -26 -15 -47 2 -35 29 -21 50 37 54 42 3 48 6 51 27 3 15 -3
30 -14 38 -20 15 -30 15 -59 4z m45 -31 c0 -16 -7 -20 -30 -20 -32 0 -37 9
-18 28 19 19 48 15 48 -8z"/>
<path d="M4094 326 c-50 -50 -47 -104 7 -125 21 -7 33 -5 59 10 18 11 30 22
27 25 -3 3 -16 -2 -30 -10 -28 -19 -53 -13 -60 14 -7 28 5 38 53 42 39 3 45 6
48 27 4 27 -20 51 -51 51 -10 0 -34 -15 -53 -34z m76 -6 c0 -16 -7 -20 -37
-20 -35 0 -36 0 -18 20 10 11 26 20 37 20 11 0 18 -7 18 -20z"/>
<path d="M4258 352 c-13 -2 -16 -10 -12 -31 7 -32 -12 -111 -26 -111 -6 0 -10
-5 -10 -11 0 -6 14 -9 31 -7 30 3 31 5 33 55 3 50 18 83 37 83 5 0 9 -7 9 -15
0 -9 6 -12 16 -8 8 3 14 15 12 26 -2 17 -10 21 -38 22 -19 1 -43 -1 -52 -3z"/>
</g>
</svg>
