<svg xmlns="http://www.w3.org/2000/svg" xml:space="preserve" width="2000" height="1500" data-id="lg_RtebAOVbVtAp5WDIME" data-version="1" viewBox="0 0 2000 1500"><path fill="#fff" stroke="transparent" d="M0 0h2000v1500H0z"/><g data-padding="20"><g transform="translate(-1609.842 -1215.339)scale(2.54354)"><rect width="515.99" height="172.89" x="368.071" y="286.23" fill="none" rx="0" ry="0" transform="translate(395.34 358.78)"/><path d="M796.226 779.515h-14.54l48.35-115.21h.92l48.19 115.21h-16.98l-36.11-91.95 10.56-6.89Zm9.48-29.07 4.29-12.85h41.16l4.89 12.85Zm129.76 29.07h-35.5v-110.62h30.14q16.37 0 27.93 5.05 11.55 5.05 18.59 13.31 7.03 8.26 10.32 18.29 3.29 10.02 3.29 19.96 0 12.55-4.36 22.49-4.36 9.95-12.01 16.99-7.65 7.03-17.52 10.78t-20.88 3.75m-20.66-96.39v82.16h17.75q9.18 0 16.91-2.75 7.72-2.76 13.46-7.96t8.95-12.77q3.22-7.58 3.22-17.22 0-10.25-3.37-17.97-3.37-7.73-9.18-12.93t-13.16-7.88q-7.34-2.68-15.45-2.68Zm90.72-14.23h17.6l36.41 91.5-8.41-1.69 34.57-89.81h17.29l-48.8 115.67Zm119.65 110.62v-110.62h14.84v110.62Zm82.17 0h-35.5v-110.62h30.14q16.38 0 27.93 5.05t18.59 13.31q7.03 8.26 10.32 18.29 3.29 10.02 3.29 19.96 0 12.55-4.36 22.49-4.36 9.95-12.01 16.99-7.65 7.03-17.52 10.78-9.86 3.75-20.88 3.75m-20.66-96.39v82.16h17.75q9.18 0 16.91-2.75 7.73-2.76 13.46-7.96 5.74-5.2 8.95-12.77 3.22-7.58 3.22-17.22 0-10.25-3.37-17.97-3.37-7.73-9.18-12.93t-13.16-7.88q-7.34-2.68-15.45-2.68Z"/><rect width="569.328" height="70.06" x="341.402" y="337.645" fill="none" rx="0" ry="0" transform="translate(400 492.64)"/><path d="M794.806 838.285v17.98q3.66-3.03 8.31-3.03 7.93 0 11.1 7 1.24 2.85 1.24 7.38 0 8.37-4.41 12.77-4.4 4.4-11.4 4.4-4.1 0-6.24-.55-2.13-.56-2.63-.87v-44.77Zm0 20.15v22.88q1.8.44 3.91.44 6.2 0 9.45-3.6 3.26-3.6 3.26-10.11t-3.29-9.3q-2.29-1.92-5.95-1.92t-7.38 1.61m35.41 22.39q1.37.49 4.34.49 2.98 0 7.69-2.42v-25.11l4.03-.31v31.31h-4.03v-3.34q-4.59 3.53-9.36 3.53-5.95 0-8.62-3.53-1.36-1.74-1.36-4.84v-22.82l4.03-.31v22.08q0 3.84 3.28 5.27m25.41-27.03 4.03-.31v31.31h-4.03Zm1.86-8.3q-1.24 0-1.89-.81t-.65-2.05.71-2.01q.72-.78 1.96-.78t2.01.78q.78.77.78 2.14 0 1.36-.84 2.04-.84.69-2.08.69m15.01 39.29h-4.03v-46.19l4.03-.31Zm22.19-31.31q3.66 0 6.95 2.17v-17.05l4.03-.31v45.08h-.31q-1.93.8-6.42 1.24-4.5.43-6.23.43-5.21 0-8.62-2.6-4.77-3.6-4.77-11.84 0-8.25 4.43-12.68 4.43-4.44 10.94-4.44m6.95 27.35v-22.51q-3.1-1.18-6.08-1.18-5.7 0-8.96 3.47-3.25 3.48-3.25 9.86 0 6.39 3.53 8.99 2.54 1.99 6.42 1.99 3.87 0 8.34-.62m11.54-27.03 4.03-.31v31.31h-4.03Zm1.86-8.3q-1.24 0-1.89-.81t-.65-2.05.71-2.01q.71-.78 1.95-.78t2.02.78q.77.77.77 2.14 0 1.36-.84 2.04-.83.69-2.07.69m14.37 7.98v3.72q4.65-3.41 8.81-3.59 3.78 0 5.82.93 2.05.93 3.38 2.63 1.34 1.71 1.34 4.81v22.81h-4.03v-21.76q0-2.29-1-3.53-1.98-2.3-6.07-2.3-3.91.19-8.25 2.55v25.04h-4.03v-31Zm32.49 19.35q-4.59-2.3-4.59-8.62 0-5.21 3.6-7.94 3.59-2.72 9.17-2.72 1.49 0 3.66.31l11.66-.31-.13 2.35h-6.75q3.41 2.54 3.41 7.66 0 5.11-3.41 7.87t-8.81 2.76q-3.47 0-5.76-.62-1.18 1.12-1.18 2.61 0 2.1 2.32 3.03 2.33.93 5.49 1.37 7.01.93 10.11 2.6 4.46 2.48 4.46 7.63 0 5.14-4.9 7.62-3.72 1.86-8.99 1.86t-8.12-.8q-7.5-2.17-7.5-8.06t6.63-9.98q-2.6-1.93-2.6-4.47t2.23-4.15m19.22 17.92q0-4.03-5.33-5.58-1.49-.44-5.33-1.06-3.85-.62-6.02-1.49-4.77 3.97-4.77 7.69 0 1.61.49 2.67.5 1.05 1.74 1.86 2.73 1.86 8.31 1.86 7.31 0 9.92-3.1.99-1.18.99-2.85m-3.41-27.35q0-6.57-7.81-6.57-3.72 0-6.14 1.71-2.42 1.7-2.42 5.21 0 3.5 1.74 5.33 1.73 1.83 5.86 1.83 4.12 0 6.44-1.99 2.33-1.98 2.33-5.52m36.77 6.14v.99q0 10.92 10.41 10.92 4.4 0 8.06-1.18.93-.31 1.3-.5l.93 3.29q-2.17 1.3-7.87 1.86-1.61.12-3.41.12-5.21 0-8.68-2.6-4.77-3.54-4.77-11.78 0-8.25 4.3-12.68 4.31-4.43 10.45-4.43t9.24 3.96q2.36 3.17 2.36 8.37 0 1.24-.13 2.61h-22.13q-.06.49-.06 1.05m10.97-12.15q-3.84 0-6.57 2.33-2.73 2.32-3.78 5.98h18.04q-.31-6.88-5.33-8-1.12-.31-2.36-.31m36.39 27.71-8.3-13.2-8.25 12.89h-4.65l10.73-16.3-9.43-14.7 4.78-.31 7.56 12.09 7.38-11.78h4.65l-9.86 15.26 10.23 15.74Zm32.24-20.64-.31-6.51q-2.54-.81-5.2-.81-5.4 0-8.65 3.47-3.26 3.48-3.26 9.8 0 11.04 10.23 11.04 4.09 0 8.43-1.37.87-.25 1.06-.37l.99 3.35q-2.17 1.3-7.87 1.86-1.62.12-3.41.12-5.27 0-8.68-2.6-4.78-3.6-4.78-11.84 0-8.25 4.43-12.68 4.44-4.44 11.44-4.44 2.24 0 4.75.59t3.87 1.83v8.12Zm13.21 5.08v.99q0 10.92 10.42 10.92 4.4 0 8.06-1.18.93-.31 1.3-.5l.93 3.29q-2.17 1.3-7.88 1.86-1.61.12-3.41.12-5.2 0-8.68-2.6-4.77-3.54-4.77-11.78 0-8.25 4.31-12.68t10.45-4.43q6.13 0 9.23 3.96 2.36 3.17 2.36 8.37 0 1.24-.12 2.61h-22.14q-.06.49-.06 1.05m10.97-12.15q-3.84 0-6.57 2.33-2.73 2.32-3.78 5.98h18.04q-.31-6.88-5.33-8-1.12-.31-2.36-.31m21.95 27.4h-4.03v-46.19l4.03-.31Zm10.85 0h-4.03v-46.19l4.03-.31Zm9.92-15.25v.99q0 10.92 10.42 10.92 4.4 0 8.06-1.18.93-.31 1.3-.5l.93 3.29q-2.17 1.3-7.87 1.86-1.62.12-3.41.12-5.21 0-8.68-2.6-4.78-3.54-4.78-11.78 0-8.25 4.31-12.68t10.45-4.43 9.24 3.96q2.35 3.17 2.35 8.37 0 1.24-.12 2.61h-22.14q-.06.49-.06 1.05m10.98-12.15q-3.85 0-6.58 2.33-2.72 2.32-3.78 5.98h18.04q-.31-6.88-5.33-8-1.11-.31-2.35-.31m21.32-3.91v3.72q4.65-3.41 8.81-3.59 3.78 0 5.83.93 2.04.93 3.37 2.63 1.34 1.71 1.34 4.81v22.81h-4.03v-21.76q0-2.29-.99-3.53-1.99-2.3-6.08-2.3-3.91.19-8.25 2.55v25.04h-4.03v-31Zm48.24 10.98-.31-6.51q-2.54-.81-5.21-.81-5.39 0-8.65 3.47-3.25 3.48-3.25 9.8 0 11.04 10.23 11.04 4.09 0 8.43-1.37.87-.25 1.05-.37l1 3.35q-2.17 1.3-7.88 1.86-1.61.12-3.41.12-5.27 0-8.68-2.6-4.77-3.6-4.77-11.84 0-8.25 4.43-12.68 4.43-4.44 11.44-4.44 2.23 0 4.74.59t3.88 1.83v8.12Zm13.21 5.08v.99q0 10.92 10.41 10.92 4.4 0 8.06-1.18.93-.31 1.3-.5l.93 3.29q-2.17 1.3-7.87 1.86-1.61.12-3.41.12-5.21 0-8.68-2.6-4.77-3.54-4.77-11.78 0-8.25 4.3-12.68 4.31-4.43 10.45-4.43t9.24 3.96q2.36 3.17 2.36 8.37 0 1.24-.13 2.61h-22.13q-.06.49-.06 1.05m10.97-12.15q-3.84 0-6.57 2.33-2.73 2.32-3.78 5.98h18.04q-.31-6.88-5.33-8-1.12-.31-2.36-.31"/></g><path fill="transparent" stroke="transparent" stroke-width="2.636" d="M250 413.884h1500v672.232H250z"/></g></svg>